HIERARCHY
ROOT Hips
{
	OFFSET 0.000000 0.000000 0.000000
	CHANNELS 6 Xposition Yposition Zposition Xrotation Yrotation Zrotation
	JOINT LeftUpLeg_virtual
	{
		OFFSET 0.000000 0.000000 0.000000
		CHANNELS 3 Xrotation Yrotation Zrotation
		JOINT LeftUpLeg
		{
			OFFSET 15.427100 -6.655098 0.678600
			CHANNELS 3 Xrotation Yrotation Zrotation
			JOINT LeftLeg
			{
				OFFSET 4.081073 -39.591068 13.024000
				CHANNELS 3 Xrotation Yrotation Zrotation
				JOINT LeftFoot
				{
					OFFSET -4.081074 -37.707932 -15.979700
					CHANNELS 3 Xrotation Yrotation Zrotation
					JOINT LeftToeBase
					{
						OFFSET 5.346399 -15.068900 20.645000
						CHANNELS 3 Xrotation Yrotation Zrotation
						JOINT LeftToe_End
						{
							OFFSET 2.754700 0.931300 11.300900
							CHANNELS 3 Xrotation Yrotation Zrotation
							End Site
							{
								OFFSET 0 0 0
							}
						}
					}
				}
			}
		}
	}
	JOINT RightUpLeg_virtual
	{
		OFFSET 0.000000 0.000000 0.000000
		CHANNELS 3 Xrotation Yrotation Zrotation
		JOINT RightUpLeg
		{
			OFFSET -15.569500 -6.655098 0.678600
			CHANNELS 3 Xrotation Yrotation Zrotation
			JOINT RightLeg
			{
				OFFSET -4.081825 -39.591045 13.023800
				CHANNELS 3 Xrotation Yrotation Zrotation
				JOINT RightFoot
				{
					OFFSET 4.081824 -37.707954 -15.979600
					CHANNELS 3 Xrotation Yrotation Zrotation
					JOINT RightToeBase
					{
						OFFSET -5.346400 -15.068900 20.645000
						CHANNELS 3 Xrotation Yrotation Zrotation
						JOINT RightToe_End
						{
							OFFSET -2.754700 0.931300 11.300900
							CHANNELS 3 Xrotation Yrotation Zrotation
							End Site
							{
								OFFSET 0 0 0
							}
						}
					}
				}
			}
		}
	}
	JOINT Spine_virtual
	{
		OFFSET 0.000000 0.000000 0.000000
		CHANNELS 3 Xrotation Yrotation Zrotation
		JOINT Spine
		{
			OFFSET -0.279200 12.230698 -2.892100
			CHANNELS 3 Xrotation Yrotation Zrotation
			JOINT Spine1
			{
				OFFSET -0.232667 10.192268 -1.242267
				CHANNELS 3 Xrotation Yrotation Zrotation
				JOINT Spine1_split
				{
					OFFSET -0.232667 10.192268 -1.242267
					CHANNELS 3 Xrotation Yrotation Zrotation
					JOINT Spine2
					{
						OFFSET -0.232667 10.192268 -1.242267
						CHANNELS 3 Xrotation Yrotation Zrotation
						JOINT Neck_virtual
						{
							OFFSET 0.000000 0.000000 0.000000
							CHANNELS 3 Xrotation Yrotation Zrotation
							JOINT Neck
							{
								OFFSET -0.418800 17.814194 8.416900
								CHANNELS 3 Xrotation Yrotation Zrotation
								JOINT Head
								{
									OFFSET 0.000000 7.031097 3.806800
									CHANNELS 3 Xrotation Yrotation Zrotation
									JOINT HeadTop_End
									{
										OFFSET 0.000000 24.646606 12.978600
										CHANNELS 3 Xrotation Yrotation Zrotation
										End Site
										{
											OFFSET 0 0 0
										}
									}
								}
							}
						}
						JOINT LeftShoulder_virtual
						{
							OFFSET 0.000000 0.000000 0.000000
							CHANNELS 3 Xrotation Yrotation Zrotation
							JOINT LeftShoulder
							{
								OFFSET 8.476499 7.247704 -3.868750
								CHANNELS 3 Xrotation Yrotation Zrotation
								JOINT LeftShoulder_split
								{
									OFFSET 8.476499 7.247704 -3.868750
									CHANNELS 3 Xrotation Yrotation Zrotation
									JOINT LeftArm
									{
										OFFSET 9.308998 -2.777710 0.208600
										CHANNELS 3 Xrotation Yrotation Zrotation
										JOINT LeftForeArm
										{
											OFFSET 29.972298 0.000000 0.000000
											CHANNELS 3 Xrotation Yrotation Zrotation
											JOINT LeftHand
											{
												OFFSET 26.026505 0.000000 0.000000
												CHANNELS 3 Xrotation Yrotation Zrotation
												End Site
												{
													OFFSET 0 0 0
												}
											}
										}
									}
								}
							}
						}
						JOINT RightShoulder_virtual
						{
							OFFSET 0.000000 0.000000 0.000000
							CHANNELS 3 Xrotation Yrotation Zrotation
							JOINT RightShoulder
							{
								OFFSET -7.570500 7.247704 -3.868750
								CHANNELS 3 Xrotation Yrotation Zrotation
								JOINT RightShoulder_split
								{
									OFFSET -7.570500 7.247704 -3.868750
									CHANNELS 3 Xrotation Yrotation Zrotation
									JOINT RightArm
									{
										OFFSET -9.308998 -2.777710 0.208500
										CHANNELS 3 Xrotation Yrotation Zrotation
										JOINT RightForeArm
										{
											OFFSET -29.972300 0.000000 0.000000
											CHANNELS 3 Xrotation Yrotation Zrotation
											JOINT RightHand
											{
												OFFSET -26.026505 0.000000 0.000000
												CHANNELS 3 Xrotation Yrotation Zrotation
												End Site
												{
													OFFSET 0 0 0
												}
											}
										}
									}
								}
							}
						}
					}
				}
			}
		}
	}
}
MOTION
Frames: 6
Frame Time: 0.03333333
-0.640130 83.218132 4.363209 0.000000 0.000000 0.000000 -14.553912 -1.535640 -5.292453 -28.213256 22.421981 10.962025 38.551596 -9.007431 8.801676 -1.507684 -6.772066 -1.294361 -2.580507 -0.097681 -0.981063 0.000000 0.000000 0.000000 -13.997867 -1.134244 -5.438176 -13.981276 -32.499809 2.375575 33.485593 10.913835 -9.270584 -2.366807 8.748503 -4.901529 -2.344392 0.663541 0.568692 0.000000 0.000000 0.000000 -14.329414 -2.083294 -5.973728 5.013393 -1.229957 2.607116 13.576707 -0.759831 -0.517475 0.508443 2.364077 -0.414315 0.000000 0.000000 0.000000 12.217668 -0.217903 -0.754347 12.043457 0.798147 1.078353 -2.497708 0.557829 3.027792 0.000000 0.000000 0.000000 12.508257 -0.099730 -0.820188 0.841180 6.854779 -10.071877 -1.884749 -2.726075 -0.595967 65.599363 -67.348308 -4.676144 0.236035 -26.989629 1.269100 0.000000 0.000000 0.000000 12.565697 -0.311269 -0.832226 1.361897 -1.649860 11.777051 6.057790 0.478171 -2.438424 6.413737 36.017947 57.926650 -0.916249 28.201393 0.387908 0.000000 0.000000 0.000000 
-0.652197 83.227287 4.379585 0.000000 0.000000 0.000000 -14.544014 -1.518721 -5.294955 -28.215880 22.435317 10.962180 38.548143 -9.005816 8.807245 -1.499474 -6.768912 -1.293396 -2.580367 -0.098096 -0.980081 0.000000 0.000000 0.000000 -13.989391 -1.122812 -5.440806 -13.978235 -32.494550 2.376790 33.471865 10.921608 -9.273592 -2.363438 8.765540 -4.886947 -2.365315 0.661617 0.569698 0.000000 0.000000 0.000000 -14.313593 -2.063970 -5.974165 5.004179 -1.227174 2.608928 13.576966 -0.759038 -0.520224 0.507759 2.358595 -0.416169 0.000000 0.000000 0.000000 12.222118 -0.217659 -0.757468 12.049536 0.798578 1.076877 -2.510747 0.565592 3.025000 0.000000 0.000000 0.000000 12.510873 -0.099029 -0.820791 0.839450 6.841434 -10.069099 -1.894908 -2.717225 -0.586125 65.564714 -67.314048 -4.697936 0.223241 -26.992834 1.254168 0.000000 0.000000 0.000000 12.562541 -0.312713 -0.833877 1.361711 -1.655614 11.776613 6.066435 0.474522 -2.435118 6.400669 36.028865 57.935919 -0.918323 28.220474 0.389707 0.000000 0.000000 0.000000 
-0.665184 83.241188 4.394264 0.000000 0.000000 0.000000 -14.528022 -1.474333 -5.299776 -28.216876 22.431531 10.959061 38.532550 -9.013728 8.815377 -1.487325 -6.773327 -1.293826 -2.583476 -0.099276 -0.975746 0.000000 0.000000 0.000000 -13.975335 -1.094146 -5.447113 -13.968445 -32.527355 2.374351 33.444793 10.930936 -9.271017 -2.362479 8.790446 -4.874728 -2.361870 0.661082 0.572923 0.000000 0.000000 0.000000 -14.290172 -2.029508 -5.977497 4.999393 -1.225427 2.616232 13.575252 -0.763665 -0.522997 0.513185 2.358166 -0.415981 0.000000 0.000000 0.000000 12.225467 -0.222657 -0.761404 12.044447 0.799683 1.091976 -2.534757 0.598720 3.010260 0.000000 0.000000 0.000000 12.512015 -0.104098 -0.821145 0.837281 6.835570 -10.061977 -1.897538 -2.724634 -0.576522 65.312400 -67.295142 -4.920369 0.211988 -26.962597 1.241536 0.000000 0.000000 0.000000 12.557669 -0.319805 -0.836123 1.362773 -1.661613 11.767986 6.073000 0.477864 -2.429985 6.388679 36.036262 57.947817 -0.916790 28.241311 0.391633 0.000000 0.000000 0.000000 
-0.675802 83.253349 4.406685 0.000000 0.000000 0.000000 -14.510136 -1.410078 -5.305419 -28.218317 22.413165 10.953242 38.512752 -9.025373 8.823429 -1.473154 -6.780761 -1.288383 -2.588003 -0.101057 -0.969978 0.000000 0.000000 0.000000 -13.960346 -1.047959 -5.455416 -13.958988 -32.593943 2.364984 33.412421 10.940156 -9.263842 -2.363376 8.816804 -4.865349 -2.344170 0.662345 0.577639 0.000000 0.000000 0.000000 -14.266198 -1.982075 -5.982259 5.000277 -1.225558 2.627206 13.572178 -0.772954 -0.525211 0.517828 2.364213 -0.417996 0.000000 0.000000 0.000000 12.229343 -0.232222 -0.764776 12.028405 0.802153 1.121453 -2.566625 0.654862 2.983470 0.000000 0.000000 0.000000 12.511712 -0.114003 -0.820543 0.834416 6.838262 -10.049943 -1.896001 -2.739672 -0.567565 64.860617 -67.296338 -5.333884 0.204155 -26.911750 1.233653 0.000000 0.000000 0.000000 12.552059 -0.331758 -0.838248 1.365375 -1.666087 11.751673 6.079195 0.492254 -2.423904 6.381800 36.041945 57.958847 -0.912098 28.259073 0.393923 0.000000 0.000000 0.000000 
-0.683667 83.261467 4.418552 0.000000 0.000000 0.000000 -14.492763 -1.334069 -5.309643 -28.221623 22.385091 10.942860 38.495882 -9.034111 8.828855 -1.461910 -6.784697 -1.269602 -2.591581 -0.102544 -0.965045 0.000000 0.000000 0.000000 -13.945581 -0.984738 -5.462142 -13.954581 -32.683541 2.344525 33.387744 10.951162 -9.254555 -2.366711 8.840361 -4.849147 -2.339806 0.665180 0.582462 0.000000 0.000000 0.000000 -14.246275 -1.925045 -5.986922 5.007319 -1.228918 2.638954 13.568756 -0.786184 -0.526058 0.521586 2.370981 -0.421293 0.000000 0.000000 0.000000 12.234279 -0.245270 -0.766342 12.002738 0.805753 1.161311 -2.600709 0.732315 2.944753 0.000000 0.000000 0.000000 12.511125 -0.127887 -0.817975 0.830711 6.850515 -10.030701 -1.892012 -2.759030 -0.560159 64.247567 -67.318959 -5.906188 0.202063 -26.847100 1.232160 0.000000 0.000000 0.000000 12.546680 -0.347779 -0.839302 1.369330 -1.667725 11.727255 6.082960 0.513312 -2.415436 6.382987 36.048932 57.962782 -0.905829 28.267624 0.397002 0.000000 0.000000 0.000000 
-0.688717 83.263115 4.429672 0.000000 0.000000 0.000000 -14.474976 -1.252315 -5.310316 -28.227488 22.350355 10.927227 38.485770 -9.036321 8.830212 -1.456868 -6.780816 -1.236577 -2.593006 -0.103043 -0.962577 0.000000 0.000000 0.000000 -13.933233 -0.909027 -5.465420 -13.957186 -32.779143 2.312411 33.377721 10.964992 -9.246902 -2.370525 8.855648 -4.820918 -2.360813 0.668862 0.586407 0.000000 0.000000 0.000000 -14.233727 -1.861244 -5.989057 5.018458 -1.236455 2.649044 13.565668 -0.802736 -0.524963 0.522262 2.375686 -0.429996 0.000000 0.000000 0.000000 12.241054 -0.261528 -0.765144 11.968209 0.811312 1.206716 -2.629450 0.828459 2.896147 0.000000 0.000000 0.000000 12.511726 -0.144872 -0.813008 0.826096 6.871282 -10.002210 -1.880190 -2.782609 -0.549679 63.531244 -67.360132 -6.588016 0.204993 -26.771864 1.237048 0.000000 0.000000 0.000000 12.543786 -0.367086 -0.838036 1.374790 -1.664717 11.695998 6.082303 0.530895 -2.403595 6.395625 36.060581 57.955712 -0.899483 28.264399 0.401761 0.000000 0.000000 0.000000 
